<mxfile host="app.diagrams.net" agent="Mozilla/5.0 (Windows NT 10.0; Win64; x64) AppleWebKit/537.36 (KHTML, like Gecko) Chrome/139.0.0.0 Safari/537.36" version="28.1.1">
  <diagram name="Page-1" id="GSMynYJZileEk8mJsjKA">
    <mxGraphModel dx="1042" dy="562" grid="1" gridSize="10" guides="1" tooltips="1" connect="1" arrows="1" fold="1" page="1" pageScale="1" pageWidth="850" pageHeight="1100" math="0" shadow="0">
      <root>
        <mxCell id="0" />
        <mxCell id="1" parent="0" />
        <mxCell id="JOD4wgA5hd_xoKUIWi79-3" value="" style="edgeStyle=orthogonalEdgeStyle;rounded=0;orthogonalLoop=1;jettySize=auto;html=1;" edge="1" parent="1" source="JOD4wgA5hd_xoKUIWi79-1" target="JOD4wgA5hd_xoKUIWi79-2">
          <mxGeometry relative="1" as="geometry" />
        </mxCell>
        <mxCell id="JOD4wgA5hd_xoKUIWi79-1" value="Start" style="ellipse;whiteSpace=wrap;html=1;" vertex="1" parent="1">
          <mxGeometry x="80" y="40" width="110" height="60" as="geometry" />
        </mxCell>
        <mxCell id="JOD4wgA5hd_xoKUIWi79-5" value="" style="edgeStyle=orthogonalEdgeStyle;rounded=0;orthogonalLoop=1;jettySize=auto;html=1;" edge="1" parent="1" source="JOD4wgA5hd_xoKUIWi79-2" target="JOD4wgA5hd_xoKUIWi79-4">
          <mxGeometry relative="1" as="geometry" />
        </mxCell>
        <mxCell id="JOD4wgA5hd_xoKUIWi79-18" value="" style="edgeStyle=orthogonalEdgeStyle;rounded=0;orthogonalLoop=1;jettySize=auto;html=1;" edge="1" parent="1" source="JOD4wgA5hd_xoKUIWi79-2" target="JOD4wgA5hd_xoKUIWi79-17">
          <mxGeometry relative="1" as="geometry" />
        </mxCell>
        <mxCell id="JOD4wgA5hd_xoKUIWi79-2" value="New&amp;nbsp;&lt;div&gt;User&lt;/div&gt;" style="rhombus;whiteSpace=wrap;html=1;" vertex="1" parent="1">
          <mxGeometry x="95" y="130" width="80" height="80" as="geometry" />
        </mxCell>
        <mxCell id="JOD4wgA5hd_xoKUIWi79-7" value="" style="edgeStyle=orthogonalEdgeStyle;rounded=0;orthogonalLoop=1;jettySize=auto;html=1;" edge="1" parent="1" source="JOD4wgA5hd_xoKUIWi79-4" target="JOD4wgA5hd_xoKUIWi79-6">
          <mxGeometry relative="1" as="geometry" />
        </mxCell>
        <mxCell id="JOD4wgA5hd_xoKUIWi79-4" value="Recognize the&amp;nbsp;&lt;div&gt;Face&lt;/div&gt;" style="shape=parallelogram;perimeter=parallelogramPerimeter;whiteSpace=wrap;html=1;fixedSize=1;" vertex="1" parent="1">
          <mxGeometry x="75" y="250" width="120" height="60" as="geometry" />
        </mxCell>
        <mxCell id="JOD4wgA5hd_xoKUIWi79-12" value="" style="edgeStyle=orthogonalEdgeStyle;rounded=0;orthogonalLoop=1;jettySize=auto;html=1;" edge="1" parent="1" source="JOD4wgA5hd_xoKUIWi79-6" target="JOD4wgA5hd_xoKUIWi79-11">
          <mxGeometry relative="1" as="geometry" />
        </mxCell>
        <mxCell id="JOD4wgA5hd_xoKUIWi79-6" value="Face&amp;nbsp;&lt;div&gt;Recoginzed&lt;/div&gt;" style="rhombus;whiteSpace=wrap;html=1;" vertex="1" parent="1">
          <mxGeometry x="95" y="350" width="80" height="80" as="geometry" />
        </mxCell>
        <mxCell id="JOD4wgA5hd_xoKUIWi79-10" style="edgeStyle=orthogonalEdgeStyle;rounded=0;orthogonalLoop=1;jettySize=auto;html=1;" edge="1" parent="1">
          <mxGeometry relative="1" as="geometry">
            <mxPoint x="175" y="390" as="sourcePoint" />
            <mxPoint x="635" y="100" as="targetPoint" />
            <Array as="points">
              <mxPoint x="190" y="390" />
              <mxPoint x="780" y="390" />
              <mxPoint x="780" y="30" />
              <mxPoint x="635" y="30" />
            </Array>
          </mxGeometry>
        </mxCell>
        <mxCell id="JOD4wgA5hd_xoKUIWi79-16" value="" style="edgeStyle=orthogonalEdgeStyle;rounded=0;orthogonalLoop=1;jettySize=auto;html=1;" edge="1" parent="1" source="JOD4wgA5hd_xoKUIWi79-11" target="JOD4wgA5hd_xoKUIWi79-15">
          <mxGeometry relative="1" as="geometry" />
        </mxCell>
        <mxCell id="JOD4wgA5hd_xoKUIWi79-11" value="Stored CVS file with&lt;div&gt;registration number &amp;amp;&lt;/div&gt;&lt;div&gt;data of entry&lt;/div&gt;" style="shape=parallelogram;perimeter=parallelogramPerimeter;whiteSpace=wrap;html=1;fixedSize=1;" vertex="1" parent="1">
          <mxGeometry x="40" y="500" width="190" height="80" as="geometry" />
        </mxCell>
        <mxCell id="JOD4wgA5hd_xoKUIWi79-15" value="End" style="ellipse;whiteSpace=wrap;html=1;" vertex="1" parent="1">
          <mxGeometry x="45" y="640" width="180" height="60" as="geometry" />
        </mxCell>
        <mxCell id="JOD4wgA5hd_xoKUIWi79-24" value="" style="edgeStyle=orthogonalEdgeStyle;rounded=0;orthogonalLoop=1;jettySize=auto;html=1;" edge="1" parent="1" source="JOD4wgA5hd_xoKUIWi79-17" target="JOD4wgA5hd_xoKUIWi79-19">
          <mxGeometry relative="1" as="geometry" />
        </mxCell>
        <mxCell id="JOD4wgA5hd_xoKUIWi79-17" value="Give your photograph" style="whiteSpace=wrap;html=1;" vertex="1" parent="1">
          <mxGeometry x="560" y="150" width="160" height="40" as="geometry" />
        </mxCell>
        <mxCell id="JOD4wgA5hd_xoKUIWi79-26" value="" style="edgeStyle=orthogonalEdgeStyle;rounded=0;orthogonalLoop=1;jettySize=auto;html=1;entryX=1;entryY=0.5;entryDx=0;entryDy=0;" edge="1" parent="1" source="JOD4wgA5hd_xoKUIWi79-19" target="JOD4wgA5hd_xoKUIWi79-4">
          <mxGeometry relative="1" as="geometry">
            <mxPoint x="455" y="280" as="targetPoint" />
          </mxGeometry>
        </mxCell>
        <mxCell id="JOD4wgA5hd_xoKUIWi79-19" value="Store the face data in&lt;div&gt;folder on your name&lt;/div&gt;" style="whiteSpace=wrap;html=1;" vertex="1" parent="1">
          <mxGeometry x="535" y="250" width="210" height="60" as="geometry" />
        </mxCell>
        <mxCell id="JOD4wgA5hd_xoKUIWi79-23" style="edgeStyle=orthogonalEdgeStyle;rounded=0;orthogonalLoop=1;jettySize=auto;html=1;exitX=0.5;exitY=1;exitDx=0;exitDy=0;" edge="1" parent="1" source="JOD4wgA5hd_xoKUIWi79-17" target="JOD4wgA5hd_xoKUIWi79-17">
          <mxGeometry relative="1" as="geometry" />
        </mxCell>
        <mxCell id="JOD4wgA5hd_xoKUIWi79-28" value="YES" style="text;html=1;align=center;verticalAlign=middle;resizable=0;points=[];autosize=1;strokeColor=none;fillColor=none;" vertex="1" parent="1">
          <mxGeometry x="355" y="138" width="50" height="30" as="geometry" />
        </mxCell>
        <mxCell id="JOD4wgA5hd_xoKUIWi79-30" value="NO" style="text;html=1;align=center;verticalAlign=middle;resizable=0;points=[];autosize=1;strokeColor=none;fillColor=none;" vertex="1" parent="1">
          <mxGeometry x="370" y="348" width="40" height="30" as="geometry" />
        </mxCell>
        <mxCell id="JOD4wgA5hd_xoKUIWi79-31" value="NO" style="text;html=1;align=center;verticalAlign=middle;resizable=0;points=[];autosize=1;strokeColor=none;fillColor=none;" vertex="1" parent="1">
          <mxGeometry x="90" y="208" width="40" height="30" as="geometry" />
        </mxCell>
        <mxCell id="JOD4wgA5hd_xoKUIWi79-32" value="Text" style="text;html=1;align=center;verticalAlign=middle;resizable=0;points=[];autosize=1;strokeColor=none;fillColor=none;" vertex="1" parent="1">
          <mxGeometry x="65" y="448" width="50" height="30" as="geometry" />
        </mxCell>
      </root>
    </mxGraphModel>
  </diagram>
</mxfile>
